# xmcd CD database file
#
# Track frame offsets:
#	183
#	13058
#	23270
#	35845
#	53703
#	69140
#	86173
#	100333
#	114840
#	131245
#	143145
#	152603
#	161278
#	178078
#	190163
#	205060
#	214385
#	231180
#	243073
#	257190
#	269253
#	284138
#	301003
#	315095
#
# Disc length: 4290 seconds
#
# Revision: 0
# Processed by: cddbd v1.5.1PL0 Copyright (c) Steve Scherf et al.
# Submitted via: NeoAudio 9.9.9
#
DISCID=4510c018
DTITLE=Various Artist - The Best Of Country Music
DYEAR=1989
DGENRE=Country
TTITLE0=Rodgers - Wheeler - Jackson
TTITLE1=Stewart - Daydream Believer
TTITLE2=Webb - Galveston
TTITLE3=Silverstein - Sylvia's Mother
TTITLE4=Trad - Tom Dooley
TTITLE5=Williams - Jambalaya
TTITLE6=Wiberg - Siden - Take Me Away
TTITLE7=Welch - Farrar -- Blue Gum - Banks Of The Ohio
TTITLE8=Johnson -- I Gave You The Best Years Of My Life - Rock'n Roll
TTITLE9=Stewart - King - Tennessee Waltz
TTITLE10=Trad - Cripple Creek
TTITLE11=Tillis - Ruby Don't Take You Love To Town
TTITLE12=B R and M Gibb -- Chappell - Island In The Stream
TTITLE13=Parton -- Carlin - Jolene
TTITLE14=Weiss - Rhinestone Cowboy
TTITLE15=Dylan - If Not For You
TTITLE16=Hupp - Morrison -- Music City - You Decorated My Life
TTITLE17=Parton - 9 To 5
TTITLE18=L E Williams -- Global - Let Your Love Flow
TTITLE19=Sherrill - Wynette - Stand By Your Man
TTITLE20=Wiberg - Wending -- Swissong - Running Out Of You
TTITLE21=Trad - On Top Of Old Smokey
TTITLE22=Trad - Amazing Grace
TTITLE23=Trad - Freight Train
EXTD=YEAR: 1989
EXTT0=
EXTT1=
EXTT2=
EXTT3=
EXTT4=
EXTT5=
EXTT6=
EXTT7=
EXTT8=
EXTT9=
EXTT10=
EXTT11=
EXTT12=
EXTT13=
EXTT14=
EXTT15=
EXTT16=
EXTT17=
EXTT18=
EXTT19=
EXTT20=
EXTT21=
EXTT22=
EXTT23=
PLAYORDER=
